<mxfile host="app.diagrams.net" agent="Mozilla/5.0 (Windows NT 10.0; Win64; x64; rv:132.0) Gecko/20100101 Firefox/132.0" version="24.8.6">
  <diagram name="Page-1" id="58cdce13-f638-feb5-8d6f-7d28b1aa9fa0">
    <mxGraphModel dx="1434" dy="746" grid="1" gridSize="10" guides="1" tooltips="1" connect="1" arrows="1" fold="1" page="1" pageScale="1" pageWidth="1100" pageHeight="850" background="none" math="0" shadow="0">
      <root>
        <mxCell id="0" />
        <mxCell id="1" parent="0" />
        <mxCell id="382b91b5511bd0f7-1" value="" style="ellipse;html=1;shape=startState;fillColor=#000000;strokeColor=#ff0000;rounded=1;shadow=0;comic=0;labelBackgroundColor=none;fontFamily=Verdana;fontSize=12;fontColor=#000000;align=center;direction=south;" parent="1" vertex="1">
          <mxGeometry x="130" y="135" width="30" height="30" as="geometry" />
        </mxCell>
        <mxCell id="5ou36HSGJX0O4_VqwiRx-3" style="edgeStyle=orthogonalEdgeStyle;rounded=0;orthogonalLoop=1;jettySize=auto;html=1;entryX=0.5;entryY=0;entryDx=0;entryDy=0;" edge="1" parent="1" source="382b91b5511bd0f7-6" target="5ou36HSGJX0O4_VqwiRx-2">
          <mxGeometry relative="1" as="geometry" />
        </mxCell>
        <mxCell id="382b91b5511bd0f7-6" value="Sets the system parameters" style="rounded=1;whiteSpace=wrap;html=1;arcSize=24;fillColor=#ffffc0;strokeColor=#ff0000;shadow=0;comic=0;labelBackgroundColor=none;fontFamily=Verdana;fontSize=12;fontColor=#000000;align=center;" parent="1" vertex="1">
          <mxGeometry x="240" y="120" width="120" height="60" as="geometry" />
        </mxCell>
        <mxCell id="2a3bc250acf0617d-9" style="edgeStyle=orthogonalEdgeStyle;html=1;labelBackgroundColor=none;endArrow=open;endSize=8;strokeColor=#ff0000;fontFamily=Verdana;fontSize=12;align=left;" parent="1" source="382b91b5511bd0f7-1" target="382b91b5511bd0f7-6" edge="1">
          <mxGeometry relative="1" as="geometry" />
        </mxCell>
        <mxCell id="5ou36HSGJX0O4_VqwiRx-43" style="edgeStyle=orthogonalEdgeStyle;rounded=0;orthogonalLoop=1;jettySize=auto;html=1;entryX=0;entryY=0.5;entryDx=0;entryDy=0;" edge="1" parent="1" source="5ou36HSGJX0O4_VqwiRx-2" target="5ou36HSGJX0O4_VqwiRx-42">
          <mxGeometry relative="1" as="geometry" />
        </mxCell>
        <mxCell id="5ou36HSGJX0O4_VqwiRx-2" value="&lt;div&gt;Prompt preparation&lt;/div&gt;" style="swimlane;whiteSpace=wrap;html=1;" vertex="1" parent="1">
          <mxGeometry x="60" y="210" width="480" height="500" as="geometry" />
        </mxCell>
        <mxCell id="5ou36HSGJX0O4_VqwiRx-14" value="" style="edgeStyle=orthogonalEdgeStyle;rounded=0;orthogonalLoop=1;jettySize=auto;html=1;" edge="1" parent="5ou36HSGJX0O4_VqwiRx-2" source="5ou36HSGJX0O4_VqwiRx-4" target="5ou36HSGJX0O4_VqwiRx-6">
          <mxGeometry relative="1" as="geometry" />
        </mxCell>
        <mxCell id="5ou36HSGJX0O4_VqwiRx-17" style="edgeStyle=orthogonalEdgeStyle;rounded=0;orthogonalLoop=1;jettySize=auto;html=1;entryX=0.5;entryY=0;entryDx=0;entryDy=0;fillColor=#f8cecc;strokeColor=#b85450;endSize=8;" edge="1" parent="5ou36HSGJX0O4_VqwiRx-2" source="5ou36HSGJX0O4_VqwiRx-4" target="5ou36HSGJX0O4_VqwiRx-15">
          <mxGeometry relative="1" as="geometry" />
        </mxCell>
        <mxCell id="5ou36HSGJX0O4_VqwiRx-4" value="" style="ellipse;html=1;shape=startState;fillColor=#000000;strokeColor=#ff0000;" vertex="1" parent="5ou36HSGJX0O4_VqwiRx-2">
          <mxGeometry x="225" y="20" width="30" height="30" as="geometry" />
        </mxCell>
        <mxCell id="5ou36HSGJX0O4_VqwiRx-5" value="" style="edgeStyle=orthogonalEdgeStyle;html=1;verticalAlign=bottom;endArrow=open;endSize=8;strokeColor=#ff0000;rounded=0;entryX=0.5;entryY=0;entryDx=0;entryDy=0;" edge="1" source="5ou36HSGJX0O4_VqwiRx-4" parent="5ou36HSGJX0O4_VqwiRx-2" target="5ou36HSGJX0O4_VqwiRx-6">
          <mxGeometry relative="1" as="geometry">
            <mxPoint x="240" y="110" as="targetPoint" />
          </mxGeometry>
        </mxCell>
        <mxCell id="5ou36HSGJX0O4_VqwiRx-13" value="" style="edgeStyle=orthogonalEdgeStyle;rounded=0;orthogonalLoop=1;jettySize=auto;html=1;" edge="1" parent="5ou36HSGJX0O4_VqwiRx-2" source="5ou36HSGJX0O4_VqwiRx-6" target="5ou36HSGJX0O4_VqwiRx-12">
          <mxGeometry relative="1" as="geometry" />
        </mxCell>
        <mxCell id="5ou36HSGJX0O4_VqwiRx-6" value="Choose prompt method" style="rounded=1;whiteSpace=wrap;html=1;arcSize=40;fontColor=#000000;fillColor=#ffffc0;strokeColor=#ff0000;" vertex="1" parent="5ou36HSGJX0O4_VqwiRx-2">
          <mxGeometry x="60" y="105" width="120" height="40" as="geometry" />
        </mxCell>
        <mxCell id="5ou36HSGJX0O4_VqwiRx-38" value="" style="edgeStyle=orthogonalEdgeStyle;rounded=0;orthogonalLoop=1;jettySize=auto;html=1;" edge="1" parent="5ou36HSGJX0O4_VqwiRx-2" source="5ou36HSGJX0O4_VqwiRx-12" target="5ou36HSGJX0O4_VqwiRx-37">
          <mxGeometry relative="1" as="geometry">
            <Array as="points">
              <mxPoint x="120" y="440" />
            </Array>
          </mxGeometry>
        </mxCell>
        <mxCell id="5ou36HSGJX0O4_VqwiRx-12" value="Loads example DSLs" style="whiteSpace=wrap;html=1;fillColor=#ffffc0;strokeColor=#ff0000;fontColor=#000000;rounded=1;arcSize=40;" vertex="1" parent="5ou36HSGJX0O4_VqwiRx-2">
          <mxGeometry x="60" y="170" width="120" height="40" as="geometry" />
        </mxCell>
        <mxCell id="5ou36HSGJX0O4_VqwiRx-23" style="edgeStyle=orthogonalEdgeStyle;rounded=0;orthogonalLoop=1;jettySize=auto;html=1;entryX=0.5;entryY=0;entryDx=0;entryDy=0;" edge="1" parent="5ou36HSGJX0O4_VqwiRx-2" source="5ou36HSGJX0O4_VqwiRx-15" target="5ou36HSGJX0O4_VqwiRx-20">
          <mxGeometry relative="1" as="geometry" />
        </mxCell>
        <mxCell id="5ou36HSGJX0O4_VqwiRx-15" value="Loads problem domain description" style="rounded=1;whiteSpace=wrap;html=1;arcSize=40;fontColor=#000000;fillColor=#ffffc0;strokeColor=#ff0000;" vertex="1" parent="5ou36HSGJX0O4_VqwiRx-2">
          <mxGeometry x="270" y="105" width="120" height="40" as="geometry" />
        </mxCell>
        <mxCell id="5ou36HSGJX0O4_VqwiRx-30" style="edgeStyle=orthogonalEdgeStyle;rounded=0;orthogonalLoop=1;jettySize=auto;html=1;entryX=0.5;entryY=0;entryDx=0;entryDy=0;" edge="1" parent="5ou36HSGJX0O4_VqwiRx-2" source="5ou36HSGJX0O4_VqwiRx-20" target="5ou36HSGJX0O4_VqwiRx-27">
          <mxGeometry relative="1" as="geometry">
            <Array as="points">
              <mxPoint x="250" y="190" />
              <mxPoint x="250" y="240" />
            </Array>
          </mxGeometry>
        </mxCell>
        <mxCell id="5ou36HSGJX0O4_VqwiRx-31" value="&lt;div style=&quot;font-size: 12px;&quot;&gt;&lt;font style=&quot;font-size: 14px;&quot;&gt;Yes&lt;/font&gt;&lt;/div&gt;" style="edgeLabel;html=1;align=center;verticalAlign=middle;resizable=0;points=[];" vertex="1" connectable="0" parent="5ou36HSGJX0O4_VqwiRx-30">
          <mxGeometry x="-0.1143" relative="1" as="geometry">
            <mxPoint as="offset" />
          </mxGeometry>
        </mxCell>
        <mxCell id="5ou36HSGJX0O4_VqwiRx-34" style="edgeStyle=orthogonalEdgeStyle;rounded=0;orthogonalLoop=1;jettySize=auto;html=1;entryX=0.5;entryY=0;entryDx=0;entryDy=0;" edge="1" parent="5ou36HSGJX0O4_VqwiRx-2" source="5ou36HSGJX0O4_VqwiRx-20" target="5ou36HSGJX0O4_VqwiRx-32">
          <mxGeometry relative="1" as="geometry" />
        </mxCell>
        <mxCell id="5ou36HSGJX0O4_VqwiRx-35" value="&lt;font style=&quot;font-size: 14px;&quot;&gt;No&lt;/font&gt;" style="edgeLabel;html=1;align=center;verticalAlign=middle;resizable=0;points=[];" vertex="1" connectable="0" parent="5ou36HSGJX0O4_VqwiRx-34">
          <mxGeometry x="-0.2222" y="1" relative="1" as="geometry">
            <mxPoint as="offset" />
          </mxGeometry>
        </mxCell>
        <mxCell id="5ou36HSGJX0O4_VqwiRx-20" value="Existing base model?" style="rhombus;whiteSpace=wrap;html=1;fontColor=#000000;fillColor=#ffffc0;strokeColor=#ff0000;" vertex="1" parent="5ou36HSGJX0O4_VqwiRx-2">
          <mxGeometry x="270" y="160" width="120" height="60" as="geometry" />
        </mxCell>
        <mxCell id="5ou36HSGJX0O4_VqwiRx-33" value="" style="edgeStyle=orthogonalEdgeStyle;rounded=0;orthogonalLoop=1;jettySize=auto;html=1;" edge="1" parent="5ou36HSGJX0O4_VqwiRx-2" source="5ou36HSGJX0O4_VqwiRx-27" target="5ou36HSGJX0O4_VqwiRx-32">
          <mxGeometry relative="1" as="geometry" />
        </mxCell>
        <mxCell id="5ou36HSGJX0O4_VqwiRx-27" value="Load the base model" style="rounded=1;whiteSpace=wrap;html=1;arcSize=40;fontColor=#000000;fillColor=#ffffc0;strokeColor=#ff0000;" vertex="1" parent="5ou36HSGJX0O4_VqwiRx-2">
          <mxGeometry x="190" y="240" width="120" height="40" as="geometry" />
        </mxCell>
        <mxCell id="5ou36HSGJX0O4_VqwiRx-39" style="edgeStyle=orthogonalEdgeStyle;rounded=0;orthogonalLoop=1;jettySize=auto;html=1;entryX=0.5;entryY=0;entryDx=0;entryDy=0;" edge="1" parent="5ou36HSGJX0O4_VqwiRx-2" source="5ou36HSGJX0O4_VqwiRx-32" target="5ou36HSGJX0O4_VqwiRx-37">
          <mxGeometry relative="1" as="geometry" />
        </mxCell>
        <mxCell id="5ou36HSGJX0O4_VqwiRx-32" value="&lt;div&gt;Load the task description&lt;/div&gt;" style="whiteSpace=wrap;html=1;fillColor=#ffffc0;strokeColor=#ff0000;fontColor=#000000;rounded=1;arcSize=40;" vertex="1" parent="5ou36HSGJX0O4_VqwiRx-2">
          <mxGeometry x="270" y="310" width="120" height="40" as="geometry" />
        </mxCell>
        <mxCell id="5ou36HSGJX0O4_VqwiRx-41" style="edgeStyle=orthogonalEdgeStyle;rounded=0;orthogonalLoop=1;jettySize=auto;html=1;entryX=0;entryY=0.5;entryDx=0;entryDy=0;" edge="1" parent="5ou36HSGJX0O4_VqwiRx-2" source="5ou36HSGJX0O4_VqwiRx-37" target="5ou36HSGJX0O4_VqwiRx-40">
          <mxGeometry relative="1" as="geometry" />
        </mxCell>
        <mxCell id="5ou36HSGJX0O4_VqwiRx-37" value="Export the prompts" style="whiteSpace=wrap;html=1;fillColor=#ffffc0;strokeColor=#ff0000;fontColor=#000000;rounded=1;arcSize=40;" vertex="1" parent="5ou36HSGJX0O4_VqwiRx-2">
          <mxGeometry x="270" y="420" width="120" height="40" as="geometry" />
        </mxCell>
        <mxCell id="5ou36HSGJX0O4_VqwiRx-40" value="" style="ellipse;html=1;shape=endState;fillColor=#000000;strokeColor=#ff0000;" vertex="1" parent="5ou36HSGJX0O4_VqwiRx-2">
          <mxGeometry x="440" y="425" width="30" height="30" as="geometry" />
        </mxCell>
        <mxCell id="5ou36HSGJX0O4_VqwiRx-42" value="Call to the LLM model" style="swimlane;whiteSpace=wrap;html=1;" vertex="1" parent="1">
          <mxGeometry x="610" y="176.88" width="440" height="566.25" as="geometry" />
        </mxCell>
        <mxCell id="5ou36HSGJX0O4_VqwiRx-44" value="" style="ellipse;html=1;shape=startState;fillColor=#000000;strokeColor=#ff0000;" vertex="1" parent="5ou36HSGJX0O4_VqwiRx-42">
          <mxGeometry x="205" y="30" width="30" height="30" as="geometry" />
        </mxCell>
        <mxCell id="5ou36HSGJX0O4_VqwiRx-45" value="" style="edgeStyle=orthogonalEdgeStyle;html=1;verticalAlign=bottom;endArrow=open;endSize=8;strokeColor=#ff0000;rounded=0;entryX=0.5;entryY=0;entryDx=0;entryDy=0;" edge="1" source="5ou36HSGJX0O4_VqwiRx-44" parent="5ou36HSGJX0O4_VqwiRx-42" target="5ou36HSGJX0O4_VqwiRx-46">
          <mxGeometry relative="1" as="geometry">
            <mxPoint x="180" y="80" as="targetPoint" />
          </mxGeometry>
        </mxCell>
        <mxCell id="5ou36HSGJX0O4_VqwiRx-49" style="edgeStyle=orthogonalEdgeStyle;rounded=0;orthogonalLoop=1;jettySize=auto;html=1;entryX=0.5;entryY=0;entryDx=0;entryDy=0;" edge="1" parent="5ou36HSGJX0O4_VqwiRx-42" source="5ou36HSGJX0O4_VqwiRx-46" target="5ou36HSGJX0O4_VqwiRx-48">
          <mxGeometry relative="1" as="geometry" />
        </mxCell>
        <mxCell id="5ou36HSGJX0O4_VqwiRx-46" value="Define the system role" style="rounded=1;whiteSpace=wrap;html=1;arcSize=40;fontColor=#000000;fillColor=#ffffc0;strokeColor=#ff0000;" vertex="1" parent="5ou36HSGJX0O4_VqwiRx-42">
          <mxGeometry x="160" y="90" width="120" height="40" as="geometry" />
        </mxCell>
        <mxCell id="5ou36HSGJX0O4_VqwiRx-53" style="edgeStyle=orthogonalEdgeStyle;rounded=0;orthogonalLoop=1;jettySize=auto;html=1;entryX=0.5;entryY=0;entryDx=0;entryDy=0;" edge="1" parent="5ou36HSGJX0O4_VqwiRx-42" source="5ou36HSGJX0O4_VqwiRx-48" target="5ou36HSGJX0O4_VqwiRx-52">
          <mxGeometry relative="1" as="geometry">
            <Array as="points">
              <mxPoint x="100" y="190" />
            </Array>
          </mxGeometry>
        </mxCell>
        <mxCell id="5ou36HSGJX0O4_VqwiRx-54" value="&lt;div&gt;&lt;font style=&quot;font-size: 14px;&quot;&gt;ChatGPT&lt;/font&gt;&lt;/div&gt;" style="edgeLabel;html=1;align=center;verticalAlign=middle;resizable=0;points=[];" vertex="1" connectable="0" parent="5ou36HSGJX0O4_VqwiRx-53">
          <mxGeometry x="-0.0833" y="3" relative="1" as="geometry">
            <mxPoint as="offset" />
          </mxGeometry>
        </mxCell>
        <mxCell id="5ou36HSGJX0O4_VqwiRx-60" style="edgeStyle=orthogonalEdgeStyle;rounded=0;orthogonalLoop=1;jettySize=auto;html=1;entryX=0.5;entryY=0;entryDx=0;entryDy=0;" edge="1" parent="5ou36HSGJX0O4_VqwiRx-42" source="5ou36HSGJX0O4_VqwiRx-48" target="5ou36HSGJX0O4_VqwiRx-59">
          <mxGeometry relative="1" as="geometry">
            <Array as="points">
              <mxPoint x="340" y="190" />
            </Array>
          </mxGeometry>
        </mxCell>
        <mxCell id="5ou36HSGJX0O4_VqwiRx-61" value="&lt;font style=&quot;font-size: 14px;&quot;&gt;LLama3.2&lt;/font&gt;" style="edgeLabel;html=1;align=center;verticalAlign=middle;resizable=0;points=[];" vertex="1" connectable="0" parent="5ou36HSGJX0O4_VqwiRx-60">
          <mxGeometry x="0.02" y="-1" relative="1" as="geometry">
            <mxPoint as="offset" />
          </mxGeometry>
        </mxCell>
        <mxCell id="5ou36HSGJX0O4_VqwiRx-48" value="&lt;div&gt;Which LLM?&lt;/div&gt;" style="rhombus;whiteSpace=wrap;html=1;fontColor=#000000;fillColor=#ffffc0;strokeColor=#ff0000;" vertex="1" parent="5ou36HSGJX0O4_VqwiRx-42">
          <mxGeometry x="160" y="160" width="120" height="60" as="geometry" />
        </mxCell>
        <mxCell id="5ou36HSGJX0O4_VqwiRx-56" value="" style="edgeStyle=orthogonalEdgeStyle;rounded=0;orthogonalLoop=1;jettySize=auto;html=1;" edge="1" parent="5ou36HSGJX0O4_VqwiRx-42" source="5ou36HSGJX0O4_VqwiRx-52" target="5ou36HSGJX0O4_VqwiRx-55">
          <mxGeometry relative="1" as="geometry" />
        </mxCell>
        <mxCell id="5ou36HSGJX0O4_VqwiRx-52" value="&lt;div&gt;Create OpenAI client&lt;br&gt;&lt;/div&gt;" style="whiteSpace=wrap;html=1;fillColor=#ffffc0;strokeColor=#ff0000;fontColor=#000000;rounded=1;arcSize=40;" vertex="1" parent="5ou36HSGJX0O4_VqwiRx-42">
          <mxGeometry x="40" y="230" width="120" height="40" as="geometry" />
        </mxCell>
        <mxCell id="5ou36HSGJX0O4_VqwiRx-58" value="" style="edgeStyle=orthogonalEdgeStyle;rounded=0;orthogonalLoop=1;jettySize=auto;html=1;" edge="1" parent="5ou36HSGJX0O4_VqwiRx-42" source="5ou36HSGJX0O4_VqwiRx-55" target="5ou36HSGJX0O4_VqwiRx-57">
          <mxGeometry relative="1" as="geometry" />
        </mxCell>
        <mxCell id="5ou36HSGJX0O4_VqwiRx-55" value="Define messages User/System/Assistant" style="whiteSpace=wrap;html=1;fillColor=#ffffc0;strokeColor=#ff0000;fontColor=#000000;rounded=1;arcSize=40;" vertex="1" parent="5ou36HSGJX0O4_VqwiRx-42">
          <mxGeometry x="40" y="300" width="120" height="60" as="geometry" />
        </mxCell>
        <mxCell id="5ou36HSGJX0O4_VqwiRx-67" value="" style="edgeStyle=orthogonalEdgeStyle;rounded=0;orthogonalLoop=1;jettySize=auto;html=1;" edge="1" parent="5ou36HSGJX0O4_VqwiRx-42" source="5ou36HSGJX0O4_VqwiRx-57" target="5ou36HSGJX0O4_VqwiRx-66">
          <mxGeometry relative="1" as="geometry" />
        </mxCell>
        <mxCell id="5ou36HSGJX0O4_VqwiRx-57" value="Generate output model" style="whiteSpace=wrap;html=1;fillColor=#ffffc0;strokeColor=#ff0000;fontColor=#000000;rounded=1;arcSize=40;" vertex="1" parent="5ou36HSGJX0O4_VqwiRx-42">
          <mxGeometry x="160" y="410" width="120" height="40" as="geometry" />
        </mxCell>
        <mxCell id="5ou36HSGJX0O4_VqwiRx-63" value="" style="edgeStyle=orthogonalEdgeStyle;rounded=0;orthogonalLoop=1;jettySize=auto;html=1;entryX=0.5;entryY=0;entryDx=0;entryDy=0;" edge="1" parent="5ou36HSGJX0O4_VqwiRx-42" source="5ou36HSGJX0O4_VqwiRx-59" target="5ou36HSGJX0O4_VqwiRx-64">
          <mxGeometry relative="1" as="geometry">
            <mxPoint x="340" y="300" as="targetPoint" />
          </mxGeometry>
        </mxCell>
        <mxCell id="5ou36HSGJX0O4_VqwiRx-59" value="&lt;div&gt;Build Llama generator&lt;br&gt;&lt;/div&gt;" style="whiteSpace=wrap;html=1;fillColor=#ffffc0;strokeColor=#ff0000;fontColor=#000000;rounded=1;arcSize=40;" vertex="1" parent="5ou36HSGJX0O4_VqwiRx-42">
          <mxGeometry x="280" y="230" width="120" height="40" as="geometry" />
        </mxCell>
        <mxCell id="5ou36HSGJX0O4_VqwiRx-65" style="edgeStyle=orthogonalEdgeStyle;rounded=0;orthogonalLoop=1;jettySize=auto;html=1;entryX=0.5;entryY=0;entryDx=0;entryDy=0;" edge="1" parent="5ou36HSGJX0O4_VqwiRx-42" source="5ou36HSGJX0O4_VqwiRx-64" target="5ou36HSGJX0O4_VqwiRx-57">
          <mxGeometry relative="1" as="geometry" />
        </mxCell>
        <mxCell id="5ou36HSGJX0O4_VqwiRx-64" value="Define dialogs User/System/Completion" style="whiteSpace=wrap;html=1;fillColor=#ffffc0;strokeColor=#ff0000;fontColor=#000000;rounded=1;arcSize=40;" vertex="1" parent="5ou36HSGJX0O4_VqwiRx-42">
          <mxGeometry x="280" y="300" width="120" height="60" as="geometry" />
        </mxCell>
        <mxCell id="5ou36HSGJX0O4_VqwiRx-69" style="edgeStyle=orthogonalEdgeStyle;rounded=0;orthogonalLoop=1;jettySize=auto;html=1;entryX=0.5;entryY=0;entryDx=0;entryDy=0;" edge="1" parent="5ou36HSGJX0O4_VqwiRx-42" source="5ou36HSGJX0O4_VqwiRx-66" target="5ou36HSGJX0O4_VqwiRx-68">
          <mxGeometry relative="1" as="geometry" />
        </mxCell>
        <mxCell id="5ou36HSGJX0O4_VqwiRx-66" value="Save output model in csv and json folder" style="whiteSpace=wrap;html=1;fillColor=#ffffc0;strokeColor=#ff0000;fontColor=#000000;rounded=1;arcSize=40;" vertex="1" parent="5ou36HSGJX0O4_VqwiRx-42">
          <mxGeometry x="160" y="472.5" width="120" height="37.5" as="geometry" />
        </mxCell>
        <mxCell id="5ou36HSGJX0O4_VqwiRx-68" value="" style="ellipse;html=1;shape=endState;fillColor=#000000;strokeColor=#ff0000;" vertex="1" parent="5ou36HSGJX0O4_VqwiRx-42">
          <mxGeometry x="205" y="533.12" width="30" height="30" as="geometry" />
        </mxCell>
      </root>
    </mxGraphModel>
  </diagram>
</mxfile>
